# MagicaVoxel @ Ephtracy

# group
g beermug

# material
mtllib beermug.mtl
usemtl palette

# normals
vn -1 0 0
vn 1 0 0
vn 0 0 1
vn 0 0 -1
vn 0 -1 0
vn 0 1 0

# texcoords
vt 0.595703 0.5
vt 0.751953 0.5
vt 0.876953 0.5
vt 0.970703 0.5
vt 0.978516 0.5
vt 0.990234 0.5

# verts
v -10 4 0.5
v -10 4 -0.5
v -10 18 0.5
v -10 18 -0.5
v -9 3 0.5
v -9 3 -0.5
v -9 4 0.5
v -9 4 -0.5
v -9 18 0.5
v -9 18 -0.5
v -9 19 0.5
v -9 19 -0.5
v -7 1 0.5
v -7 1 -0.5
v -7 3 0.5
v -7 3 -0.5
v -7 19 0.5
v -7 19 -0.5
v -7 22 0.5
v -7 22 -0.5
v -6 0 0.5
v -6 0 -0.5
v -6 1 0.5
v -6 1 -0.5
v -6 22 0.5
v -6 22 -0.5
v -6 23 0.5
v -6 23 -0.5
v -5 23 0.5
v -5 23 -0.5
v -5 24 0.5
v -5 24 -0.5
v 8 23 0.5
v 8 23 -0.5
v 8 24 0.5
v 8 24 -0.5
v 9 0 0.5
v 9 0 -0.5
v 9 1 0.5
v 9 1 -0.5
v 9 22 0.5
v 9 22 -0.5
v 9 23 0.5
v 9 23 -0.5
v 10 1 0.5
v 10 1 -0.5
v 10 22 0.5
v 10 22 -0.5
v -10 4 0.5
v -10 18 0.5
v -9 3 0.5
v -9 4 0.5
v -9 5 0.5
v -9 17 0.5
v -9 18 0.5
v -9 19 0.5
v -8 4 0.5
v -8 5 0.5
v -8 7 0.5
v -8 16 0.5
v -8 17 0.5
v -8 18 0.5
v -7 1 0.5
v -7 3 0.5
v -7 7 0.5
v -7 15 0.5
v -7 19 0.5
v -7 22 0.5
v -6 0 0.5
v -6 1 0.5
v -6 2 0.5
v -6 4 0.5
v -6 5 0.5
v -6 7 0.5
v -6 15 0.5
v -6 16 0.5
v -6 18 0.5
v -6 21 0.5
v -6 22 0.5
v -6 23 0.5
v -5 1 0.5
v -5 2 0.5
v -5 3 0.5
v -5 19 0.5
v -5 21 0.5
v -5 22 0.5
v -5 23 0.5
v -5 24 0.5
v -4 3 0.5
v -4 19 0.5
v -4 20 0.5
v -4 22 0.5
v -4 23 0.5
v -3 3 0.5
v -3 9 0.5
v -3 15 0.5
v -3 19 0.5
v -2 21 0.5
v -2 22 0.5
v -1 20 0.5
v -1 21 0.5
v -1 22 0.5
v -1 23 0.5
v 0 20 0.5
v 0 22 0.5
v 0 23 0.5
v 2 4 0.5
v 2 9 0.5
v 2 15 0.5
v 2 19 0.5
v 2 21 0.5
v 2 22 0.5
v 3 20 0.5
v 3 21 0.5
v 3 22 0.5
v 3 23 0.5
v 4 4 0.5
v 4 9 0.5
v 4 15 0.5
v 4 19 0.5
v 4 20 0.5
v 4 22 0.5
v 4 23 0.5
v 6 3 0.5
v 6 9 0.5
v 6 15 0.5
v 6 19 0.5
v 6 21 0.5
v 6 22 0.5
v 7 3 0.5
v 7 19 0.5
v 7 20 0.5
v 7 21 0.5
v 7 22 0.5
v 7 23 0.5
v 8 1 0.5
v 8 2 0.5
v 8 3 0.5
v 8 19 0.5
v 8 21 0.5
v 8 22 0.5
v 8 23 0.5
v 8 24 0.5
v 9 0 0.5
v 9 1 0.5
v 9 2 0.5
v 9 21 0.5
v 9 22 0.5
v 9 23 0.5
v 10 1 0.5
v 10 22 0.5
v -10 4 -0.5
v -10 18 -0.5
v -9 3 -0.5
v -9 4 -0.5
v -9 5 -0.5
v -9 17 -0.5
v -9 18 -0.5
v -9 19 -0.5
v -8 4 -0.5
v -8 5 -0.5
v -8 7 -0.5
v -8 16 -0.5
v -8 17 -0.5
v -8 18 -0.5
v -7 1 -0.5
v -7 3 -0.5
v -7 7 -0.5
v -7 15 -0.5
v -7 19 -0.5
v -7 22 -0.5
v -6 0 -0.5
v -6 1 -0.5
v -6 2 -0.5
v -6 4 -0.5
v -6 5 -0.5
v -6 7 -0.5
v -6 15 -0.5
v -6 16 -0.5
v -6 18 -0.5
v -6 21 -0.5
v -6 22 -0.5
v -6 23 -0.5
v -5 1 -0.5
v -5 2 -0.5
v -5 3 -0.5
v -5 19 -0.5
v -5 21 -0.5
v -5 22 -0.5
v -5 23 -0.5
v -5 24 -0.5
v -4 3 -0.5
v -4 19 -0.5
v -4 20 -0.5
v -4 22 -0.5
v -4 23 -0.5
v -3 3 -0.5
v -3 9 -0.5
v -3 15 -0.5
v -3 19 -0.5
v -2 21 -0.5
v -2 22 -0.5
v -1 20 -0.5
v -1 21 -0.5
v -1 22 -0.5
v -1 23 -0.5
v 0 20 -0.5
v 0 22 -0.5
v 0 23 -0.5
v 2 4 -0.5
v 2 9 -0.5
v 2 15 -0.5
v 2 19 -0.5
v 2 21 -0.5
v 2 22 -0.5
v 3 20 -0.5
v 3 21 -0.5
v 3 22 -0.5
v 3 23 -0.5
v 4 4 -0.5
v 4 9 -0.5
v 4 15 -0.5
v 4 19 -0.5
v 4 20 -0.5
v 4 22 -0.5
v 4 23 -0.5
v 6 3 -0.5
v 6 9 -0.5
v 6 15 -0.5
v 6 19 -0.5
v 6 21 -0.5
v 6 22 -0.5
v 7 3 -0.5
v 7 19 -0.5
v 7 20 -0.5
v 7 21 -0.5
v 7 22 -0.5
v 7 23 -0.5
v 8 1 -0.5
v 8 2 -0.5
v 8 3 -0.5
v 8 19 -0.5
v 8 21 -0.5
v 8 22 -0.5
v 8 23 -0.5
v 8 24 -0.5
v 9 0 -0.5
v 9 1 -0.5
v 9 2 -0.5
v 9 21 -0.5
v 9 22 -0.5
v 9 23 -0.5
v 10 1 -0.5
v 10 22 -0.5
v -6 0 0.5
v 9 0 0.5
v -6 0 -0.5
v 9 0 -0.5
v -7 1 0.5
v -6 1 0.5
v 9 1 0.5
v 10 1 0.5
v -7 1 -0.5
v -6 1 -0.5
v 9 1 -0.5
v 10 1 -0.5
v -9 3 0.5
v -7 3 0.5
v -9 3 -0.5
v -7 3 -0.5
v -10 4 0.5
v -9 4 0.5
v -10 4 -0.5
v -9 4 -0.5
v -10 18 0.5
v -9 18 0.5
v -10 18 -0.5
v -9 18 -0.5
v -9 19 0.5
v -7 19 0.5
v -9 19 -0.5
v -7 19 -0.5
v -7 22 0.5
v -6 22 0.5
v 9 22 0.5
v 10 22 0.5
v -7 22 -0.5
v -6 22 -0.5
v 9 22 -0.5
v 10 22 -0.5
v -6 23 0.5
v -5 23 0.5
v 8 23 0.5
v 9 23 0.5
v -6 23 -0.5
v -5 23 -0.5
v 8 23 -0.5
v 9 23 -0.5
v -5 24 0.5
v 8 24 0.5
v -5 24 -0.5
v 8 24 -0.5

# faces
f 3/6/1 2/6/1 1/6/1
f 4/6/1 2/6/1 3/6/1
f 7/6/1 6/6/1 5/6/1
f 8/6/1 6/6/1 7/6/1
f 11/6/1 10/6/1 9/6/1
f 12/6/1 10/6/1 11/6/1
f 15/6/1 14/6/1 13/6/1
f 16/6/1 14/6/1 15/6/1
f 19/6/1 18/6/1 17/6/1
f 20/6/1 18/6/1 19/6/1
f 23/6/1 22/6/1 21/6/1
f 24/6/1 22/6/1 23/6/1
f 27/6/1 26/6/1 25/6/1
f 28/6/1 26/6/1 27/6/1
f 31/6/1 30/6/1 29/6/1
f 32/6/1 30/6/1 31/6/1
f 33/6/2 34/6/2 35/6/2
f 35/6/2 34/6/2 36/6/2
f 37/6/2 38/6/2 39/6/2
f 39/6/2 38/6/2 40/6/2
f 41/6/2 42/6/2 43/6/2
f 43/6/2 42/6/2 44/6/2
f 45/6/2 46/6/2 47/6/2
f 47/6/2 46/6/2 48/6/2
f 52/6/3 50/6/3 49/6/3
f 53/6/3 50/6/3 52/6/3
f 54/6/3 50/6/3 53/6/3
f 55/6/3 50/6/3 54/6/3
f 57/6/3 52/6/3 51/6/3
f 57/6/3 53/6/3 52/6/3
f 58/4/3 54/4/3 53/4/3
f 58/6/3 53/6/3 57/6/3
f 59/4/3 54/4/3 58/4/3
f 60/4/3 54/4/3 59/4/3
f 61/6/3 56/6/3 55/6/3
f 61/4/3 54/4/3 60/4/3
f 61/6/3 55/6/3 54/6/3
f 62/6/3 56/6/3 61/6/3
f 64/6/3 57/6/3 51/6/3
f 65/5/3 60/5/3 59/5/3
f 65/4/3 59/4/3 58/4/3
f 66/5/3 60/5/3 65/5/3
f 67/6/3 56/6/3 62/6/3
f 70/6/3 64/6/3 63/6/3
f 71/6/3 64/6/3 70/6/3
f 72/6/3 57/6/3 64/6/3
f 72/6/3 64/6/3 71/6/3
f 72/5/3 58/5/3 57/5/3
f 73/4/3 65/4/3 58/4/3
f 73/5/3 58/5/3 72/5/3
f 74/6/3 66/6/3 65/6/3
f 74/4/3 65/4/3 73/4/3
f 75/5/3 60/5/3 66/5/3
f 75/6/3 66/6/3 74/6/3
f 76/4/3 61/4/3 60/4/3
f 76/5/3 60/5/3 75/5/3
f 76/4/3 62/4/3 61/4/3
f 77/6/3 68/6/3 67/6/3
f 77/4/3 62/4/3 76/4/3
f 77/6/3 67/6/3 62/6/3
f 78/6/3 68/6/3 77/6/3
f 79/6/3 68/6/3 78/6/3
f 81/6/3 71/6/3 70/6/3
f 81/6/3 70/6/3 69/6/3
f 82/4/3 76/4/3 75/4/3
f 82/6/3 71/6/3 81/6/3
f 82/4/3 74/4/3 73/4/3
f 82/4/3 78/4/3 77/4/3
f 82/4/3 77/4/3 76/4/3
f 82/4/3 73/4/3 72/4/3
f 82/4/3 72/4/3 71/4/3
f 82/4/3 75/4/3 74/4/3
f 83/4/3 78/4/3 82/4/3
f 84/4/3 78/4/3 83/4/3
f 85/6/3 80/6/3 79/6/3
f 85/4/3 78/4/3 84/4/3
f 85/6/3 79/6/3 78/6/3
f 86/6/3 80/6/3 85/6/3
f 87/6/3 80/6/3 86/6/3
f 89/5/3 84/5/3 83/5/3
f 89/4/3 83/4/3 82/4/3
f 90/4/3 85/4/3 84/4/3
f 90/5/3 84/5/3 89/5/3
f 90/4/3 86/4/3 85/4/3
f 91/4/3 86/4/3 90/4/3
f 92/6/3 88/6/3 87/6/3
f 92/4/3 86/4/3 91/4/3
f 92/6/3 87/6/3 86/6/3
f 93/6/3 88/6/3 92/6/3
f 94/3/3 90/3/3 89/3/3
f 94/4/3 89/4/3 82/4/3
f 95/3/3 90/3/3 94/3/3
f 96/3/3 90/3/3 95/3/3
f 97/4/3 91/4/3 90/4/3
f 97/3/3 90/3/3 96/3/3
f 98/5/3 92/5/3 91/5/3
f 99/4/3 93/4/3 92/4/3
f 99/5/3 92/5/3 98/5/3
f 100/5/3 98/5/3 91/5/3
f 100/4/3 91/4/3 97/4/3
f 101/4/3 99/4/3 98/4/3
f 101/5/3 98/5/3 100/5/3
f 102/4/3 93/4/3 99/4/3
f 102/4/3 99/4/3 101/4/3
f 103/6/3 88/6/3 93/6/3
f 103/4/3 93/4/3 102/4/3
f 104/4/3 102/4/3 101/4/3
f 104/4/3 101/4/3 100/4/3
f 104/4/3 100/4/3 97/4/3
f 105/6/3 103/6/3 102/6/3
f 105/4/3 102/4/3 104/4/3
f 106/6/3 88/6/3 103/6/3
f 106/6/3 103/6/3 105/6/3
f 107/2/3 95/2/3 94/2/3
f 108/3/3 96/3/3 95/3/3
f 108/2/3 95/2/3 107/2/3
f 109/1/3 97/1/3 96/1/3
f 109/3/3 96/3/3 108/3/3
f 110/4/3 104/4/3 97/4/3
f 110/1/3 97/1/3 109/1/3
f 111/5/3 105/5/3 104/5/3
f 112/4/3 106/4/3 105/4/3
f 112/5/3 105/5/3 111/5/3
f 113/4/3 104/4/3 110/4/3
f 113/5/3 111/5/3 104/5/3
f 113/4/3 110/4/3 109/4/3
f 114/4/3 112/4/3 111/4/3
f 114/5/3 111/5/3 113/5/3
f 115/4/3 106/4/3 112/4/3
f 115/4/3 112/4/3 114/4/3
f 116/6/3 88/6/3 106/6/3
f 116/4/3 106/4/3 115/4/3
f 117/2/3 107/2/3 94/2/3
f 117/3/3 108/3/3 107/3/3
f 118/1/3 109/1/3 108/1/3
f 118/3/3 108/3/3 117/3/3
f 119/4/3 114/4/3 113/4/3
f 119/1/3 109/1/3 118/1/3
f 119/4/3 115/4/3 114/4/3
f 119/4/3 113/4/3 109/4/3
f 120/4/3 115/4/3 119/4/3
f 121/4/3 115/4/3 120/4/3
f 122/6/3 116/6/3 115/6/3
f 122/4/3 115/4/3 121/4/3
f 123/6/3 88/6/3 116/6/3
f 123/6/3 116/6/3 122/6/3
f 124/2/3 118/2/3 117/2/3
f 124/2/3 117/2/3 94/2/3
f 124/4/3 94/4/3 82/4/3
f 125/3/3 119/3/3 118/3/3
f 125/2/3 118/2/3 124/2/3
f 126/1/3 120/1/3 119/1/3
f 126/3/3 119/3/3 125/3/3
f 127/4/3 121/4/3 120/4/3
f 127/1/3 120/1/3 126/1/3
f 128/5/3 122/5/3 121/5/3
f 129/4/3 123/4/3 122/4/3
f 129/5/3 122/5/3 128/5/3
f 130/3/3 126/3/3 125/3/3
f 130/3/3 125/3/3 124/3/3
f 130/4/3 124/4/3 82/4/3
f 130/3/3 127/3/3 126/3/3
f 131/4/3 121/4/3 127/4/3
f 131/3/3 127/3/3 130/3/3
f 132/5/3 128/5/3 121/5/3
f 132/4/3 121/4/3 131/4/3
f 133/4/3 129/4/3 128/4/3
f 133/5/3 128/5/3 132/5/3
f 134/4/3 123/4/3 129/4/3
f 134/4/3 129/4/3 133/4/3
f 135/6/3 88/6/3 123/6/3
f 135/4/3 123/4/3 134/4/3
f 136/6/3 81/6/3 69/6/3
f 136/5/3 82/5/3 81/5/3
f 137/4/3 130/4/3 82/4/3
f 137/5/3 82/5/3 136/5/3
f 138/5/3 131/5/3 130/5/3
f 138/4/3 130/4/3 137/4/3
f 139/4/3 134/4/3 133/4/3
f 139/5/3 131/5/3 138/5/3
f 139/4/3 133/4/3 132/4/3
f 139/4/3 132/4/3 131/4/3
f 140/4/3 134/4/3 139/4/3
f 141/6/3 135/6/3 134/6/3
f 141/4/3 134/4/3 140/4/3
f 142/6/3 88/6/3 135/6/3
f 142/6/3 135/6/3 141/6/3
f 143/6/3 88/6/3 142/6/3
f 144/6/3 136/6/3 69/6/3
f 144/6/3 137/6/3 136/6/3
f 145/6/3 137/6/3 144/6/3
f 146/4/3 138/4/3 137/4/3
f 146/6/3 137/6/3 145/6/3
f 146/4/3 140/4/3 139/4/3
f 146/4/3 139/4/3 138/4/3
f 147/6/3 141/6/3 140/6/3
f 147/4/3 140/4/3 146/4/3
f 147/6/3 142/6/3 141/6/3
f 148/6/3 142/6/3 147/6/3
f 149/6/3 142/6/3 148/6/3
f 150/6/3 146/6/3 145/6/3
f 150/6/3 148/6/3 147/6/3
f 150/6/3 147/6/3 146/6/3
f 151/6/3 148/6/3 150/6/3
f 152/6/4 153/6/4 155/6/4
f 155/6/4 153/6/4 156/6/4
f 156/6/4 153/6/4 157/6/4
f 157/6/4 153/6/4 158/6/4
f 154/6/4 155/6/4 160/6/4
f 155/6/4 156/6/4 160/6/4
f 156/4/4 157/4/4 161/4/4
f 160/6/4 156/6/4 161/6/4
f 161/4/4 157/4/4 162/4/4
f 162/4/4 157/4/4 163/4/4
f 158/6/4 159/6/4 164/6/4
f 163/4/4 157/4/4 164/4/4
f 157/6/4 158/6/4 164/6/4
f 164/6/4 159/6/4 165/6/4
f 154/6/4 160/6/4 167/6/4
f 162/5/4 163/5/4 168/5/4
f 161/4/4 162/4/4 168/4/4
f 168/5/4 163/5/4 169/5/4
f 165/6/4 159/6/4 170/6/4
f 166/6/4 167/6/4 173/6/4
f 173/6/4 167/6/4 174/6/4
f 167/6/4 160/6/4 175/6/4
f 174/6/4 167/6/4 175/6/4
f 160/5/4 161/5/4 175/5/4
f 161/4/4 168/4/4 176/4/4
f 175/5/4 161/5/4 176/5/4
f 168/6/4 169/6/4 177/6/4
f 176/4/4 168/4/4 177/4/4
f 169/5/4 163/5/4 178/5/4
f 177/6/4 169/6/4 178/6/4
f 163/4/4 164/4/4 179/4/4
f 178/5/4 163/5/4 179/5/4
f 164/4/4 165/4/4 179/4/4
f 170/6/4 171/6/4 180/6/4
f 179/4/4 165/4/4 180/4/4
f 165/6/4 170/6/4 180/6/4
f 180/6/4 171/6/4 181/6/4
f 181/6/4 171/6/4 182/6/4
f 173/6/4 174/6/4 184/6/4
f 172/6/4 173/6/4 184/6/4
f 178/4/4 179/4/4 185/4/4
f 184/6/4 174/6/4 185/6/4
f 176/4/4 177/4/4 185/4/4
f 180/4/4 181/4/4 185/4/4
f 179/4/4 180/4/4 185/4/4
f 175/4/4 176/4/4 185/4/4
f 174/4/4 175/4/4 185/4/4
f 177/4/4 178/4/4 185/4/4
f 185/4/4 181/4/4 186/4/4
f 186/4/4 181/4/4 187/4/4
f 182/6/4 183/6/4 188/6/4
f 187/4/4 181/4/4 188/4/4
f 181/6/4 182/6/4 188/6/4
f 188/6/4 183/6/4 189/6/4
f 189/6/4 183/6/4 190/6/4
f 186/5/4 187/5/4 192/5/4
f 185/4/4 186/4/4 192/4/4
f 187/4/4 188/4/4 193/4/4
f 192/5/4 187/5/4 193/5/4
f 188/4/4 189/4/4 193/4/4
f 193/4/4 189/4/4 194/4/4
f 190/6/4 191/6/4 195/6/4
f 194/4/4 189/4/4 195/4/4
f 189/6/4 190/6/4 195/6/4
f 195/6/4 191/6/4 196/6/4
f 192/3/4 193/3/4 197/3/4
f 185/4/4 192/4/4 197/4/4
f 197/3/4 193/3/4 198/3/4
f 198/3/4 193/3/4 199/3/4
f 193/4/4 194/4/4 200/4/4
f 199/3/4 193/3/4 200/3/4
f 194/5/4 195/5/4 201/5/4
f 195/4/4 196/4/4 202/4/4
f 201/5/4 195/5/4 202/5/4
f 194/5/4 201/5/4 203/5/4
f 200/4/4 194/4/4 203/4/4
f 201/4/4 202/4/4 204/4/4
f 203/5/4 201/5/4 204/5/4
f 202/4/4 196/4/4 205/4/4
f 204/4/4 202/4/4 205/4/4
f 196/6/4 191/6/4 206/6/4
f 205/4/4 196/4/4 206/4/4
f 204/4/4 205/4/4 207/4/4
f 203/4/4 204/4/4 207/4/4
f 200/4/4 203/4/4 207/4/4
f 205/6/4 206/6/4 208/6/4
f 207/4/4 205/4/4 208/4/4
f 206/6/4 191/6/4 209/6/4
f 208/6/4 206/6/4 209/6/4
f 197/2/4 198/2/4 210/2/4
f 198/3/4 199/3/4 211/3/4
f 210/2/4 198/2/4 211/2/4
f 199/1/4 200/1/4 212/1/4
f 211/3/4 199/3/4 212/3/4
f 200/4/4 207/4/4 213/4/4
f 212/1/4 200/1/4 213/1/4
f 207/5/4 208/5/4 214/5/4
f 208/4/4 209/4/4 215/4/4
f 214/5/4 208/5/4 215/5/4
f 213/4/4 207/4/4 216/4/4
f 207/5/4 214/5/4 216/5/4
f 212/4/4 213/4/4 216/4/4
f 214/4/4 215/4/4 217/4/4
f 216/5/4 214/5/4 217/5/4
f 215/4/4 209/4/4 218/4/4
f 217/4/4 215/4/4 218/4/4
f 209/6/4 191/6/4 219/6/4
f 218/4/4 209/4/4 219/4/4
f 197/2/4 210/2/4 220/2/4
f 210/3/4 211/3/4 220/3/4
f 211/1/4 212/1/4 221/1/4
f 220/3/4 211/3/4 221/3/4
f 216/4/4 217/4/4 222/4/4
f 221/1/4 212/1/4 222/1/4
f 217/4/4 218/4/4 222/4/4
f 212/4/4 216/4/4 222/4/4
f 222/4/4 218/4/4 223/4/4
f 223/4/4 218/4/4 224/4/4
f 218/6/4 219/6/4 225/6/4
f 224/4/4 218/4/4 225/4/4
f 219/6/4 191/6/4 226/6/4
f 225/6/4 219/6/4 226/6/4
f 220/2/4 221/2/4 227/2/4
f 197/2/4 220/2/4 227/2/4
f 185/4/4 197/4/4 227/4/4
f 221/3/4 222/3/4 228/3/4
f 227/2/4 221/2/4 228/2/4
f 222/1/4 223/1/4 229/1/4
f 228/3/4 222/3/4 229/3/4
f 223/4/4 224/4/4 230/4/4
f 229/1/4 223/1/4 230/1/4
f 224/5/4 225/5/4 231/5/4
f 225/4/4 226/4/4 232/4/4
f 231/5/4 225/5/4 232/5/4
f 228/3/4 229/3/4 233/3/4
f 227/3/4 228/3/4 233/3/4
f 185/4/4 227/4/4 233/4/4
f 229/3/4 230/3/4 233/3/4
f 230/4/4 224/4/4 234/4/4
f 233/3/4 230/3/4 234/3/4
f 224/5/4 231/5/4 235/5/4
f 234/4/4 224/4/4 235/4/4
f 231/4/4 232/4/4 236/4/4
f 235/5/4 231/5/4 236/5/4
f 232/4/4 226/4/4 237/4/4
f 236/4/4 232/4/4 237/4/4
f 226/6/4 191/6/4 238/6/4
f 237/4/4 226/4/4 238/4/4
f 172/6/4 184/6/4 239/6/4
f 184/5/4 185/5/4 239/5/4
f 185/4/4 233/4/4 240/4/4
f 239/5/4 185/5/4 240/5/4
f 233/5/4 234/5/4 241/5/4
f 240/4/4 233/4/4 241/4/4
f 236/4/4 237/4/4 242/4/4
f 241/5/4 234/5/4 242/5/4
f 235/4/4 236/4/4 242/4/4
f 234/4/4 235/4/4 242/4/4
f 242/4/4 237/4/4 243/4/4
f 237/6/4 238/6/4 244/6/4
f 243/4/4 237/4/4 244/4/4
f 238/6/4 191/6/4 245/6/4
f 244/6/4 238/6/4 245/6/4
f 245/6/4 191/6/4 246/6/4
f 172/6/4 239/6/4 247/6/4
f 239/6/4 240/6/4 247/6/4
f 247/6/4 240/6/4 248/6/4
f 240/4/4 241/4/4 249/4/4
f 248/6/4 240/6/4 249/6/4
f 242/4/4 243/4/4 249/4/4
f 241/4/4 242/4/4 249/4/4
f 243/6/4 244/6/4 250/6/4
f 249/4/4 243/4/4 250/4/4
f 244/6/4 245/6/4 250/6/4
f 250/6/4 245/6/4 251/6/4
f 251/6/4 245/6/4 252/6/4
f 248/6/4 249/6/4 253/6/4
f 250/6/4 251/6/4 253/6/4
f 249/6/4 250/6/4 253/6/4
f 253/6/4 251/6/4 254/6/4
f 257/6/5 256/6/5 255/6/5
f 258/6/5 256/6/5 257/6/5
f 263/6/5 260/6/5 259/6/5
f 264/6/5 260/6/5 263/6/5
f 265/6/5 262/6/5 261/6/5
f 266/6/5 262/6/5 265/6/5
f 269/6/5 268/6/5 267/6/5
f 270/6/5 268/6/5 269/6/5
f 273/6/5 272/6/5 271/6/5
f 274/6/5 272/6/5 273/6/5
f 275/6/6 276/6/6 277/6/6
f 277/6/6 276/6/6 278/6/6
f 279/6/6 280/6/6 281/6/6
f 281/6/6 280/6/6 282/6/6
f 283/6/6 284/6/6 287/6/6
f 287/6/6 284/6/6 288/6/6
f 285/6/6 286/6/6 289/6/6
f 289/6/6 286/6/6 290/6/6
f 291/6/6 292/6/6 295/6/6
f 295/6/6 292/6/6 296/6/6
f 293/6/6 294/6/6 297/6/6
f 297/6/6 294/6/6 298/6/6
f 299/6/6 300/6/6 301/6/6
f 301/6/6 300/6/6 302/6/6
