# MagicaVoxel @ Ephtracy

# group
g player

# material
mtllib player.mtl
usemtl palette

# normals
vn -1 0 0
vn 1 0 0
vn 0 0 1
vn 0 0 -1
vn 0 -1 0
vn 0 1 0

# texcoords
vt 0.408203 0.5
vt 0.642578 0.5
vt 0.939453 0.5
vt 0.994141 0.5

# verts
v -10 0 9
v -10 0 -10
v -10 20 9
v -10 20 -10
v -8 16 10
v -8 16 9
v -8 18 10
v -8 18 9
v -6 2 10
v -6 2 9
v -6 3 10
v -6 3 9
v -6 7 10
v -6 7 9
v -6 8 10
v -6 8 9
v -6 11 10
v -6 11 9
v -6 15 10
v -6 15 9
v 2 16 10
v 2 16 9
v 2 18 10
v 2 18 9
v 4 11 10
v 4 11 9
v 4 15 10
v 4 15 9
v -4 11 10
v -4 11 9
v -4 15 10
v -4 15 9
v -2 16 10
v -2 16 9
v -2 18 10
v -2 18 9
v 6 2 10
v 6 2 9
v 6 3 10
v 6 3 9
v 6 7 10
v 6 7 9
v 6 8 10
v 6 8 9
v 6 11 10
v 6 11 9
v 6 15 10
v 6 15 9
v 8 16 10
v 8 16 9
v 8 18 10
v 8 18 9
v 10 0 9
v 10 0 -10
v 10 20 9
v 10 20 -10
v -8 16 10
v -8 18 10
v -6 2 10
v -6 3 10
v -6 7 10
v -6 8 10
v -6 11 10
v -6 15 10
v -4 11 10
v -4 15 10
v -2 16 10
v -2 18 10
v 2 16 10
v 2 18 10
v 4 11 10
v 4 15 10
v 6 2 10
v 6 3 10
v 6 7 10
v 6 8 10
v 6 11 10
v 6 15 10
v 8 16 10
v 8 18 10
v -10 0 9
v -10 20 9
v -8 16 9
v -8 18 9
v -6 2 9
v -6 3 9
v -6 7 9
v -6 8 9
v -6 11 9
v -6 15 9
v -4 11 9
v -4 15 9
v -2 16 9
v -2 18 9
v 2 16 9
v 2 18 9
v 4 11 9
v 4 15 9
v 6 2 9
v 6 3 9
v 6 7 9
v 6 8 9
v 6 11 9
v 6 15 9
v 8 16 9
v 8 18 9
v 10 0 9
v 10 20 9
v -10 0 -10
v -10 20 -10
v 10 0 -10
v 10 20 -10
v -10 0 9
v 10 0 9
v -10 0 -10
v 10 0 -10
v -6 2 10
v 6 2 10
v -6 2 9
v 6 2 9
v -6 11 10
v -4 11 10
v 4 11 10
v 6 11 10
v -6 11 9
v -4 11 9
v 4 11 9
v 6 11 9
v -8 16 10
v -2 16 10
v 2 16 10
v 8 16 10
v -8 16 9
v -2 16 9
v 2 16 9
v 8 16 9
v -6 8 10
v 6 8 10
v -6 8 9
v 6 8 9
v -6 15 10
v -4 15 10
v 4 15 10
v 6 15 10
v -6 15 9
v -4 15 9
v 4 15 9
v 6 15 9
v -8 18 10
v -2 18 10
v 2 18 10
v 8 18 10
v -8 18 9
v -2 18 9
v 2 18 9
v 8 18 9
v -10 20 9
v 10 20 9
v -10 20 -10
v 10 20 -10

# faces
f 3/3/1 2/3/1 1/3/1
f 4/3/1 2/3/1 3/3/1
f 7/4/1 6/4/1 5/4/1
f 8/4/1 6/4/1 7/4/1
f 11/1/1 10/1/1 9/1/1
f 12/1/1 10/1/1 11/1/1
f 13/2/1 12/2/1 11/2/1
f 14/2/1 12/2/1 13/2/1
f 15/1/1 14/1/1 13/1/1
f 16/1/1 14/1/1 15/1/1
f 19/4/1 18/4/1 17/4/1
f 20/4/1 18/4/1 19/4/1
f 23/4/1 22/4/1 21/4/1
f 24/4/1 22/4/1 23/4/1
f 27/4/1 26/4/1 25/4/1
f 28/4/1 26/4/1 27/4/1
f 29/4/2 30/4/2 31/4/2
f 31/4/2 30/4/2 32/4/2
f 33/4/2 34/4/2 35/4/2
f 35/4/2 34/4/2 36/4/2
f 37/1/2 38/1/2 39/1/2
f 39/1/2 38/1/2 40/1/2
f 39/2/2 40/2/2 41/2/2
f 41/2/2 40/2/2 42/2/2
f 41/1/2 42/1/2 43/1/2
f 43/1/2 42/1/2 44/1/2
f 45/4/2 46/4/2 47/4/2
f 47/4/2 46/4/2 48/4/2
f 49/4/2 50/4/2 51/4/2
f 51/4/2 50/4/2 52/4/2
f 53/3/2 54/3/2 55/3/2
f 55/3/2 54/3/2 56/3/2
f 65/4/3 64/4/3 63/4/3
f 66/4/3 64/4/3 65/4/3
f 67/4/3 58/4/3 57/4/3
f 68/4/3 58/4/3 67/4/3
f 73/1/3 60/1/3 59/1/3
f 74/2/3 61/2/3 60/2/3
f 74/1/3 60/1/3 73/1/3
f 75/1/3 62/1/3 61/1/3
f 75/2/3 61/2/3 74/2/3
f 76/1/3 62/1/3 75/1/3
f 77/4/3 72/4/3 71/4/3
f 78/4/3 72/4/3 77/4/3
f 79/4/3 70/4/3 69/4/3
f 80/4/3 70/4/3 79/4/3
f 83/3/3 82/3/3 81/3/3
f 84/3/3 82/3/3 83/3/3
f 85/3/3 83/3/3 81/3/3
f 86/3/3 83/3/3 85/3/3
f 87/3/3 83/3/3 86/3/3
f 88/3/3 83/3/3 87/3/3
f 89/3/3 83/3/3 88/3/3
f 90/3/3 83/3/3 89/3/3
f 91/3/3 89/3/3 88/3/3
f 92/3/3 83/3/3 90/3/3
f 93/3/3 83/3/3 92/3/3
f 93/3/3 92/3/3 91/3/3
f 94/3/3 82/3/3 84/3/3
f 95/3/3 93/3/3 91/3/3
f 95/3/3 94/3/3 93/3/3
f 96/3/3 82/3/3 94/3/3
f 96/3/3 94/3/3 95/3/3
f 97/3/3 95/3/3 91/3/3
f 97/3/3 91/3/3 88/3/3
f 98/3/3 95/3/3 97/3/3
f 99/3/3 85/3/3 81/3/3
f 102/3/3 97/3/3 88/3/3
f 103/3/3 97/3/3 102/3/3
f 104/3/3 95/3/3 98/3/3
f 105/3/3 103/3/3 102/3/3
f 105/3/3 104/3/3 103/3/3
f 105/3/3 95/3/3 104/3/3
f 105/3/3 101/3/3 100/3/3
f 105/3/3 102/3/3 101/3/3
f 105/3/3 100/3/3 99/3/3
f 106/3/3 82/3/3 96/3/3
f 107/3/3 105/3/3 99/3/3
f 107/3/3 106/3/3 105/3/3
f 107/3/3 99/3/3 81/3/3
f 108/3/3 82/3/3 106/3/3
f 108/3/3 106/3/3 107/3/3
f 109/3/4 110/3/4 111/3/4
f 111/3/4 110/3/4 112/3/4
f 115/3/5 114/3/5 113/3/5
f 116/3/5 114/3/5 115/3/5
f 119/1/5 118/1/5 117/1/5
f 120/1/5 118/1/5 119/1/5
f 125/4/5 122/4/5 121/4/5
f 126/4/5 122/4/5 125/4/5
f 127/4/5 124/4/5 123/4/5
f 128/4/5 124/4/5 127/4/5
f 133/4/5 130/4/5 129/4/5
f 134/4/5 130/4/5 133/4/5
f 135/4/5 132/4/5 131/4/5
f 136/4/5 132/4/5 135/4/5
f 137/1/6 138/1/6 139/1/6
f 139/1/6 138/1/6 140/1/6
f 141/4/6 142/4/6 145/4/6
f 145/4/6 142/4/6 146/4/6
f 143/4/6 144/4/6 147/4/6
f 147/4/6 144/4/6 148/4/6
f 149/4/6 150/4/6 153/4/6
f 153/4/6 150/4/6 154/4/6
f 151/4/6 152/4/6 155/4/6
f 155/4/6 152/4/6 156/4/6
f 157/3/6 158/3/6 159/3/6
f 159/3/6 158/3/6 160/3/6
